<svg xmlns="http://www.w3.org/2000/svg" viewBox="0 0 48 48" fill="none">
  <!-- Background with Saudi green tint -->
  <rect width="48" height="48" rx="10" fill="#F0FDF4"/>
  <!-- Shield shape -->
  <path d="M24 6L38 12V22C38 31.39 32.22 40.01 24 43C15.78 40.01 10 31.39 10 22V12L24 6Z"
        fill="#DCFCE7" stroke="#16A34A" stroke-width="2.5" stroke-linejoin="round"/>
  <!-- Palm tree silhouette (Saudi emblem element) -->
  <path d="M24 14V28" stroke="#16A34A" stroke-width="2" stroke-linecap="round"/>
  <path d="M24 18C20 16 18 14 18 14" stroke="#16A34A" stroke-width="1.5" stroke-linecap="round"/>
  <path d="M24 18C28 16 30 14 30 14" stroke="#16A34A" stroke-width="1.5" stroke-linecap="round"/>
  <path d="M24 22C21 20.5 19 19 19 19" stroke="#16A34A" stroke-width="1.5" stroke-linecap="round"/>
  <path d="M24 22C27 20.5 29 19 29 19" stroke="#16A34A" stroke-width="1.5" stroke-linecap="round"/>
  <!-- AI/Data governance badge -->
  <circle cx="24" cy="33" r="4" fill="#16A34A"/>
  <path d="M22 33L23.5 34.5L26.5 31.5" stroke="white" stroke-width="1.5" stroke-linecap="round" stroke-linejoin="round"/>
</svg>
