<svg xmlns="http://www.w3.org/2000/svg" viewBox="0 0 64 64" fill="none">
  <!-- Background circle - EU blue -->
  <circle cx="32" cy="32" r="30" fill="#1E3A8A"/>

  <!-- Bank/Building icon -->
  <path d="M32 12 L48 22 L48 24 L16 24 L16 22 Z" fill="#FFFFFF"/>
  <rect x="18" y="24" width="28" height="2" fill="#93C5FD"/>

  <!-- Pillars -->
  <rect x="20" y="26" width="4" height="16" fill="#FFFFFF"/>
  <rect x="28" y="26" width="4" height="16" fill="#FFFFFF"/>
  <rect x="36" y="26" width="4" height="16" fill="#FFFFFF"/>
  <rect x="44" y="26" width="4" height="10" fill="#FFFFFF"/>

  <!-- Base -->
  <rect x="16" y="42" width="32" height="3" fill="#FFFFFF"/>

  <!-- Digital circuit pattern overlay -->
  <g stroke="#60A5FA" stroke-width="1" fill="none">
    <path d="M44 36 L50 36 L50 42"/>
    <circle cx="44" cy="36" r="1.5" fill="#60A5FA"/>
    <path d="M48 28 L54 28"/>
    <circle cx="48" cy="28" r="1.5" fill="#60A5FA"/>
  </g>

  <!-- Shield with circuit -->
  <path d="M44 40 L52 44 L52 50 C52 53 48 55 44 56 C40 55 36 53 36 50 L36 44 Z" fill="#3B82F6"/>
  <path d="M40 48 L43 51 L50 44" stroke="#FFFFFF" stroke-width="1.5" stroke-linecap="round" fill="none"/>

  <!-- DORA text -->
  <text x="32" y="58" font-family="Arial, sans-serif" font-size="7" font-weight="bold" fill="#FFFFFF" text-anchor="middle">DORA</text>
</svg>
