<svg xmlns="http://www.w3.org/2000/svg" viewBox="0 0 64 64" fill="none">
  <!-- Background circle - EU blue -->
  <circle cx="32" cy="32" r="30" fill="#003399"/>

  <!-- EU-style stars in circle -->
  <g fill="#FFCC00">
    <polygon points="32,8 33,11 36,11 34,13 35,16 32,14 29,16 30,13 28,11 31,11" transform="rotate(0 32 32)"/>
    <polygon points="32,8 33,11 36,11 34,13 35,16 32,14 29,16 30,13 28,11 31,11" transform="rotate(30 32 32)"/>
    <polygon points="32,8 33,11 36,11 34,13 35,16 32,14 29,16 30,13 28,11 31,11" transform="rotate(60 32 32)"/>
    <polygon points="32,8 33,11 36,11 34,13 35,16 32,14 29,16 30,13 28,11 31,11" transform="rotate(90 32 32)"/>
    <polygon points="32,8 33,11 36,11 34,13 35,16 32,14 29,16 30,13 28,11 31,11" transform="rotate(120 32 32)"/>
    <polygon points="32,8 33,11 36,11 34,13 35,16 32,14 29,16 30,13 28,11 31,11" transform="rotate(150 32 32)"/>
    <polygon points="32,8 33,11 36,11 34,13 35,16 32,14 29,16 30,13 28,11 31,11" transform="rotate(180 32 32)"/>
    <polygon points="32,8 33,11 36,11 34,13 35,16 32,14 29,16 30,13 28,11 31,11" transform="rotate(210 32 32)"/>
    <polygon points="32,8 33,11 36,11 34,13 35,16 32,14 29,16 30,13 28,11 31,11" transform="rotate(240 32 32)"/>
    <polygon points="32,8 33,11 36,11 34,13 35,16 32,14 29,16 30,13 28,11 31,11" transform="rotate(270 32 32)"/>
    <polygon points="32,8 33,11 36,11 34,13 35,16 32,14 29,16 30,13 28,11 31,11" transform="rotate(300 32 32)"/>
    <polygon points="32,8 33,11 36,11 34,13 35,16 32,14 29,16 30,13 28,11 31,11" transform="rotate(330 32 32)"/>
  </g>

  <!-- Lock icon in center -->
  <rect x="26" y="30" width="12" height="10" rx="2" fill="#FFFFFF"/>
  <path d="M28 30 L28 26 C28 23 30 21 32 21 C34 21 36 23 36 26 L36 30" stroke="#FFFFFF" stroke-width="2.5" fill="none"/>
  <circle cx="32" cy="35" r="1.5" fill="#003399"/>

  <!-- GDPR text -->
  <text x="32" y="58" font-family="Arial, sans-serif" font-size="7" font-weight="bold" fill="#FFFFFF" text-anchor="middle">GDPR</text>
</svg>
