<svg xmlns="http://www.w3.org/2000/svg" viewBox="0 0 48 48" fill="none">
  <!-- Background with Qatar maroon tint -->
  <rect width="48" height="48" rx="10" fill="#FDF2F8"/>
  <!-- Shield shape with maroon color -->
  <path d="M24 6L38 12V22C38 31.39 32.22 40.01 24 43C15.78 40.01 10 31.39 10 22V12L24 6Z"
        fill="#FCE7F3" stroke="#9F1239" stroke-width="2.5" stroke-linejoin="round"/>
  <!-- Document/privacy symbol -->
  <rect x="17" y="14" width="14" height="18" rx="2" fill="none" stroke="#9F1239" stroke-width="2"/>
  <!-- Document lines -->
  <line x1="20" y1="19" x2="28" y2="19" stroke="#9F1239" stroke-width="1.5" stroke-linecap="round"/>
  <line x1="20" y1="23" x2="28" y2="23" stroke="#9F1239" stroke-width="1.5" stroke-linecap="round"/>
  <line x1="20" y1="27" x2="25" y2="27" stroke="#9F1239" stroke-width="1.5" stroke-linecap="round"/>
  <!-- Lock symbol for data privacy -->
  <circle cx="24" cy="35" r="4" fill="#9F1239"/>
  <rect x="22" y="33" width="4" height="4" rx="0.5" fill="white"/>
  <path d="M22.5 33V31.5C22.5 30.67 23.17 30 24 30C24.83 30 25.5 30.67 25.5 31.5V33" stroke="white" stroke-width="1" stroke-linecap="round"/>
</svg>
