<svg xmlns="http://www.w3.org/2000/svg" width="32" height="32" viewBox="0 0 32 32" fill="none">
  <rect width="32" height="32" rx="6" fill="#4A154B"/>
  <path d="M11.5 18.5a1.5 1.5 0 1 1 0-3h4v-4a1.5 1.5 0 1 1 3 0v5.5a1.5 1.5 0 0 1-1.5 1.5h-5.5z" fill="#E01E5A"/>
  <path d="M20.5 13.5a1.5 1.5 0 1 1 0 3h-4v4a1.5 1.5 0 1 1-3 0v-5.5a1.5 1.5 0 0 1 1.5-1.5h5.5z" fill="#36C5F0"/>
  <path d="M13.5 20.5a1.5 1.5 0 1 1-3 0v-4h-4a1.5 1.5 0 1 1 0-3h5.5a1.5 1.5 0 0 1 1.5 1.5v5.5z" fill="#2EB67D"/>
  <path d="M18.5 11.5a1.5 1.5 0 1 1 3 0v4h4a1.5 1.5 0 1 1 0 3h-5.5a1.5 1.5 0 0 1-1.5-1.5v-5.5z" fill="#ECB22E"/>
</svg>
